<?xml version="1.0" encoding="UTF-8" standalone="no"?>
<svg width="171px" height="40px" viewBox="0 0 171 40" version="1.1" xmlns="http://www.w3.org/2000/svg" xmlns:xlink="http://www.w3.org/1999/xlink">
    <!-- Generator: Sketch 42 (36781) - http://www.bohemiancoding.com/sketch -->
    <title>logo_horizontal_green_stripes</title>
    <desc>Created with Sketch.</desc>
    <defs></defs>
    <g id="Symbols" stroke="none" stroke-width="1" fill="none" fill-rule="evenodd">
        <g id="Credify-Logo" transform="translate(-1.000000, -9.000000)" fill="#00A669">
            <g id="logo_horizontal_green_stripes" transform="translate(1.000000, 9.000000)">
                <path d="M5.09040454,33.3236487 C5.71626273,32.9745403 6.35832658,32.5453314 6.92757906,32.1212156 C6.93442652,32.116354 6.94127399,32.1107979 6.94812145,32.1057048 C7.1466979,31.9573106 7.33751389,31.8096109 7.51395021,31.6667728 L3.35868096,31.6667728 C3.73369373,32.2161324 4.14157432,32.7529907 4.58414872,33.2743383 L4.58346398,33.2748013 L4.66061207,33.3676345 C4.72406523,33.4435679 4.83088567,33.4655608 4.91739196,33.418797 C4.96920443,33.390785 5.02101691,33.3623099 5.07260114,33.3333719 L5.07442713,33.3333719 C5.07967685,33.3303624 5.08515482,33.3268898 5.09040454,33.3236487 Z M12.6762531,24.9999132 L0.474072739,24.9999132 C0.598696579,25.5576069 0.749112533,26.1136802 0.925092351,26.6667438 L11.8123314,26.6667438 C12.1279995,26.1271074 12.4162777,25.5708027 12.6762531,24.9999132 Z M13.8273118,21.6667149 L0.0237378743,21.6667149 C0.0504429829,22.2195471 0.100201219,22.7756203 0.175295072,23.333314 L13.3400006,23.333314 C13.5269364,22.787427 13.690819,22.2318168 13.8273118,21.6667149 Z M10.7135418,28.333343 L1.54067934,28.333343 C1.77851458,28.8961298 2.04442442,29.4526661 2.34069135,29.9999421 L9.31506142,29.9999421 C9.81446977,29.4714179 10.2819233,28.9155762 10.7135418,28.333343 Z M14.3169054,18.3335166 L0,18.3335166 L0,20.0001158 L14.1477731,20.0001158 C14.2283449,19.4505246 14.2847223,18.8944514 14.3169054,18.3335166 Z M0,6.66662808 L14.3500015,6.66662808 L14.3500015,5.00002894 L0,5.00002894 L0,6.66662808 Z M0,10.0000579 L14.3500015,10.0000579 L14.3500015,8.33322723 L0,8.33322723 L0,10.0000579 Z M0,16.666686 L14.3500015,16.666686 L14.3500015,15.0000868 L0,15.0000868 L0,16.666686 Z M0,13.3332562 L14.3500015,13.3332562 L14.3500015,11.666657 L0,11.666657 L0,13.3332562 Z M38,0 L38,20.7291227 C38,31.3722994 29.4933958,40 19.0001141,40 C13.9496531,40 9.36071118,37.9998032 5.95774995,34.7397603 C10.61471,32.0577835 13.9291107,27.6594341 15.2958645,22.5556912 C15.7487101,20.9071494 15.9929363,19.1704045 15.9929363,17.375552 L15.9929363,0 L38,0 L38,0 Z" id="Fill-1"></path>
                <path d="M64.6569926,12.2068396 L64.6569926,20.1826583 C64.6569926,23.9676302 63.799972,24.9342003 61.5648588,24.9878863 C59.3299727,24.9342003 58.4672736,23.9676302 58.4672736,20.1826583 L58.4672736,12.2068396 L54,12.2068396 L54,20.970795 C54,25.9987863 57.2668088,28.4685635 61.5648588,28.4685635 C65.8629089,28.4685635 69.1294905,25.9987863 69.1294905,20.970795 L69.1294905,12.2068396 L64.6569926,12.2068396 Z M131.237018,20.2454775 L131.237018,20.00222 C131.237018,16.8374212 129.809862,15.2246146 127.358506,15.2246146 C124.845366,15.2246146 123.448875,16.8982356 123.448875,20.0632571 L123.448875,20.3062919 C123.448875,23.4710907 125.00028,25.0230829 127.234484,25.0230829 C129.59271,25.0230829 131.237018,23.4710907 131.237018,20.2454775 Z M118.856898,20.3976249 L118.856898,20.1543673 C118.856898,14.9203199 121.928362,11.846854 125.99336,11.846854 C128.599857,11.846854 130.213499,12.9727 131.113223,14.5857293 L131.113223,12.1513715 L135.581178,12.1513715 L135.581178,28.1270673 L131.113223,28.1270673 L131.113223,25.4797477 C130.275283,27.0925543 128.289349,28.4616578 125.900003,28.4616578 C121.959481,28.4616578 118.856898,25.6924867 118.856898,20.3976249 Z M166.624948,18.450005 C166.469807,16.0461658 165.228683,14.8898013 163.087608,14.8898013 C161.070782,14.8898013 159.705637,16.1983131 159.364464,18.450005 L166.624948,18.450005 Z M154.740914,20.3673291 L154.740914,20.1238487 C154.740914,15.1029858 158.37161,11.846854 163.087608,11.846854 C167.276628,11.846854 171,14.250916 171,19.9414056 L171,21.1585845 L159.302226,21.1585845 C159.426248,23.805904 160.88475,25.3273776 163.336106,25.3273776 C165.414716,25.3273776 166.438688,24.4447893 166.718304,23.1062043 L170.968881,23.1062043 C170.441449,26.5445565 167.64892,28.4616578 163.211857,28.4616578 C158.309145,28.4616578 154.740914,25.4492292 154.740914,20.3673291 Z M149.191519,20.2454775 L149.191519,20.00222 C149.191519,16.8374212 147.764363,15.2246146 145.313007,15.2246146 C142.799867,15.2246146 141.403376,16.8982356 141.403376,20.0632571 L141.403376,20.3062919 C141.403376,23.4710907 142.954781,25.0230829 145.188985,25.0230829 C147.547211,25.0230829 149.191519,23.4710907 149.191519,20.2454775 Z M136.811172,20.3976249 L136.811172,20.1543673 C136.811172,14.9203199 139.882863,11.846854 143.947861,11.846854 C146.554131,11.846854 148.167773,12.9727 149.067724,14.5857293 L149.067724,5 L153.535679,5 L153.535679,28.1270673 L149.067724,28.1270673 L149.067724,25.4797477 C148.229784,27.0925543 146.24385,28.4616578 143.854504,28.4616578 C139.913982,28.4616578 136.811172,25.6924867 136.811172,20.3976249 Z M108.670097,12.2119632 L113.169398,12.2119632 L113.169398,15.2551332 C114.193144,13.1248473 115.775667,11.9990014 118.413056,11.9687056 L118.413056,16.0766844 C115.093095,16.0461658 113.169398,17.1114201 113.169398,20.1543673 L113.169398,28.1270673 L108.670097,28.1270673 L108.670097,12.2119632 Z M101.91206,19.7587396 L101.91206,19.5455551 C101.91206,16.8374212 100.454012,15.194096 98.0026559,15.194096 C95.4892892,15.194096 94.0930249,16.95905 94.0930249,19.5760737 L94.0930249,19.819554 C94.0930249,22.4670963 95.6755486,24.1101987 97.9095261,24.1101987 C100.267752,24.1101987 101.91206,22.4670963 101.91206,19.7587396 Z M89.6246156,28.4616578 L94.0930249,28.4616578 C94.3721869,29.8615027 95.3959323,30.7743868 97.6923749,30.7743868 C100.422893,30.7743868 101.788038,29.374542 101.788038,26.879147 L101.788038,24.4753078 C100.888314,26.0273 98.9643906,27.4271449 96.5752726,27.4271449 C92.6345226,27.4271449 89.5005941,24.536345 89.5005941,19.819554 L89.5005941,19.6065923 C89.5005941,15.0419486 92.6034037,11.846854 96.6372833,11.846854 C99.2748987,11.846854 100.857195,12.9727 101.788038,14.5857293 L101.788038,12.2119632 L106.256447,12.2119632 L106.256447,26.879147 C106.225328,31.595938 103.029389,34 97.6923749,34 C92.4484904,34 90.0591452,31.7483082 89.6246156,28.4616578 Z M83.7342745,20.2759961 L83.7342745,20.0327385 C83.7342745,16.8069026 82.1206318,15.2246146 79.8555354,15.2246146 C77.4975363,15.2246146 75.8838936,16.8374212 75.8838936,20.0327385 L75.8838936,20.2759961 C75.8838936,23.4710907 77.4352984,25.0230829 79.8866543,25.0230829 C82.368902,25.0230829 83.7342745,23.3797577 83.7342745,20.2759961 Z M71.5399602,12.2119632 L76.0390341,12.2119632 L76.0390341,14.7073581 C76.9389852,13.1856617 78.8315628,11.846854 81.2206807,11.846854 C85.1925496,11.846854 88.2955864,14.7376539 88.2955864,20.00222 L88.2955864,20.2454775 C88.2955864,25.5102663 85.2545604,28.4616578 81.2206807,28.4616578 C78.7075412,28.4616578 76.8767473,27.2444789 76.0390341,25.6924867 L76.0390341,33.5435579 L71.5399602,33.5435579 L71.5399602,12.2119632 L71.5399602,12.2119632 Z" id="Fill-2"></path>
            </g>
        </g>
    </g>
</svg>